<svg width="512" height="512" viewBox="0 0 512 512" fill="none" xmlns="http://www.w3.org/2000/svg">
  <defs>
    <linearGradient id="bg" x1="64" y1="52" x2="444" y2="460" gradientUnits="userSpaceOnUse">
      <stop offset="0" stop-color="#EAF4FF"/>
      <stop offset="0.52" stop-color="#BFD8FF"/>
      <stop offset="1" stop-color="#C9FFF2"/>
    </linearGradient>
    <linearGradient id="glass" x1="126" y1="112" x2="390" y2="390" gradientUnits="userSpaceOnUse">
      <stop offset="0" stop-color="#FFFFFF" stop-opacity="0.96"/>
      <stop offset="1" stop-color="#F4FBFF" stop-opacity="0.84"/>
    </linearGradient>
    <linearGradient id="tweet" x1="176" y1="178" x2="334" y2="332" gradientUnits="userSpaceOnUse">
      <stop offset="0" stop-color="#66AAFF"/>
      <stop offset="1" stop-color="#49D6C3"/>
    </linearGradient>
    <filter id="soft" x="72" y="64" width="368" height="384" filterUnits="userSpaceOnUse" color-interpolation-filters="sRGB">
      <feDropShadow dx="0" dy="20" stdDeviation="18" flood-color="#7AA4D8" flood-opacity="0.24"/>
    </filter>
  </defs>

  <rect x="32" y="32" width="448" height="448" rx="112" fill="url(#bg)"/>
  <path d="M76 86C129 54 201 48 262 58C323 68 380 96 426 140" stroke="white" stroke-opacity="0.65" stroke-width="24" stroke-linecap="round"/>
  <rect x="48" y="48" width="416" height="416" rx="96" stroke="white" stroke-opacity="0.52" stroke-width="2"/>

  <g filter="url(#soft)">
    <rect x="108" y="108" width="296" height="296" rx="86" fill="url(#glass)"/>
    <rect x="110" y="110" width="292" height="108" rx="54" fill="white" fill-opacity="0.46"/>
  </g>

  <path d="M156 294C182 245 224 214 278 212C281 212 285 212 289 213C304 177 334 156 370 156C359 174 345 187 328 196C347 194 365 188 380 179C372 198 360 214 344 226C344 230 344 234 344 239C344 289 310 338 258 350L224 372L232 338C199 327 172 315 156 294Z" fill="url(#tweet)"/>
  <circle cx="348" cy="166" r="20" fill="white"/>
  <path d="M348 156V176" stroke="#68A9FF" stroke-width="8" stroke-linecap="round"/>
  <path d="M338 166H358" stroke="#68A9FF" stroke-width="8" stroke-linecap="round"/>
</svg>
